<?xml version="1.0" standalone="no"?>
<!DOCTYPE svg PUBLIC "-//W3C//DTD SVG 20010904//EN"
 "http://www.w3.org/TR/2001/REC-SVG-20010904/DTD/svg10.dtd">
<svg version="1.0" xmlns="http://www.w3.org/2000/svg"
 width="700.000000pt" height="700.000000pt" viewBox="0 0 700.000000 700.000000"
 preserveAspectRatio="xMidYMid meet">
<metadata>
Created by potrace 1.14, written by Peter Selinger 2001-2017
</metadata>
<g transform="translate(0.000000,700.000000) scale(0.100000,-0.100000)"
fill="#000000" stroke="none">
<path d="M0 3500 l0 -3500 1750 0 1750 0 0 1729 c0 1720 0 1729 20 1734 11 3
20 12 20 21 0 15 154 16 1730 16 l1730 0 0 1750 0 1750 -3500 0 -3500 0 0
-3500z m3465 1750 l0 -1715 -1715 0 -1715 0 -3 1705 c-1 938 0 1711 3 1718 3
10 352 12 1717 10 l1713 -3 0 -1715z"/>
</g>
</svg>
